<svg xmlns="http://www.w3.org/2000/svg" xmlns:xlink="http://www.w3.org/1999/xlink" width="64" height="64" version="1.1" viewBox="0 0 64 64"><title>EFB</title><desc>Created with Sketch.</desc><defs><linearGradient id="linearGradient-1" x1="0%" x2="100%" y1="100%" y2="0%"><stop offset="0%" stop-color="#0C83BA"/><stop offset="100%" stop-color="#01A4B9"/></linearGradient></defs><g id="EFB" fill="none" fill-rule="evenodd" stroke="none" stroke-width="1"><g id="Group"><rect id="Rectangle-3" width="64.5" height="64.5" x="0" y="0" fill="url(#linearGradient-1)"/><g id="Group-2" fill="#FFF" transform="translate(5.522260, 12.369863)"><path id="Page-1" d="M19.1070205,15.7108305 C19.1070205,15.2506384 19.3371124,15.0205479 19.7973031,15.0205479 L41.1960616,15.0205479 L41.1960616,9.49828767 L52.2405822,17.7816781 L41.1960616,26.0650685 L41.1960616,20.5428082 L19.7973031,20.5428082 C19.3371124,20.5428082 19.1070205,20.3127177 19.1070205,19.8525257 L19.1070205,15.7108305 Z" transform="translate(35.673801, 17.781678) rotate(-45.000000) translate(-35.673801, -17.781678)"/><path id="Path" d="M34.3484589,24.0494435 C34.3484589,24.5096355 34.1183684,24.739726 33.6581764,24.739726 L12.2594178,24.739726 L12.2594178,30.2619863 L1.21489726,21.9785959 L12.2594178,13.6952055 L12.2594178,19.2174658 L33.6581764,19.2174658 C34.1183684,19.2174658 34.3484589,19.4475562 34.3484589,19.9077483 L34.3484589,24.0494435 Z" transform="translate(17.781678, 21.978596) rotate(-45.000000) translate(-17.781678, -21.978596)"/></g></g></g></svg>